0, 0, Header, 1, 1, 480
1, 0, Start_track
1, 0, Time_signature, 4, 2, 48, 8
1, 0, Tempo, 454545
1, 18480, Note_on_c, 2, 57, 100
1, 18720, Note_off_c, 2, 57, 0
1, 18720, Note_on_c, 2, 60, 100
1, 18960, Note_off_c, 2, 60, 0
1, 18960, Note_on_c, 2, 62, 100
1, 19200, Note_off_c, 2, 62, 0
1, 19200, Note_on_c, 2, 64, 100
1, 19680, Note_off_c, 2, 64, 0
1, 19680, Note_on_c, 2, 60, 100
1, 19920, Note_off_c, 2, 60, 0
1, 19920, Note_on_c, 2, 64, 100
1, 20160, Note_off_c, 2, 64, 0
1, 20160, Note_on_c, 2, 62, 100
1, 20640, Note_off_c, 2, 62, 0
1, 20640, Note_on_c, 2, 60, 100
1, 20880, Note_off_c, 2, 60, 0
1, 20880, Note_on_c, 2, 59, 100
1, 21120, Note_off_c, 2, 59, 0
1, 21120, Note_on_c, 2, 57, 100
1, 22560, Note_off_c, 2, 57, 0
1, 22560, Note_on_c, 2, 60, 100
1, 22800, Note_off_c, 2, 60, 0
1, 22800, Note_on_c, 2, 62, 100
1, 23040, Note_off_c, 2, 62, 0
1, 23040, Note_on_c, 2, 64, 100
1, 23520, Note_off_c, 2, 64, 0
1, 23520, Note_on_c, 2, 67, 100
1, 23760, Note_off_c, 2, 67, 0
1, 23760, Note_on_c, 2, 64, 100
1, 24240, Note_off_c, 2, 64, 0
1, 24240, Note_on_c, 2, 60, 100
1, 24480, Note_off_c, 2, 60, 0
1, 24480, Note_on_c, 2, 62, 100
1, 24720, Note_off_c, 2, 62, 0
1, 24720, Note_on_c, 2, 64, 100
1, 24960, Note_off_c, 2, 64, 0
1, 24960, Note_on_c, 2, 60, 100
1, 25440, Note_off_c, 2, 60, 0
1, 25440, Note_on_c, 2, 62, 100
1, 25680, Note_off_c, 2, 62, 0
1, 25680, Note_on_c, 2, 59, 100
1, 26160, Note_off_c, 2, 59, 0
1, 26160, Note_on_c, 2, 57, 100
1, 26400, Note_off_c, 2, 57, 0
1, 26400, Note_on_c, 2, 57, 100
1, 26640, Note_off_c, 2, 57, 0
1, 26640, Note_on_c, 2, 57, 100
1, 26880, Note_off_c, 2, 57, 0
1, 26880, Note_on_c, 2, 57, 100
1, 27360, Note_off_c, 2, 57, 0
1, 27360, Note_on_c, 2, 59, 100
1, 28073, Note_off_c, 2, 59, 0
1, 28080, Note_on_c, 2, 57, 100
1, 28320, Note_off_c, 2, 57, 0
1, 28320, Note_on_c, 2, 62, 100
1, 28560, Note_off_c, 2, 62, 0
1, 28560, Note_on_c, 2, 62, 100
1, 28800, Note_off_c, 2, 62, 0
1, 28800, Note_on_c, 2, 60, 100
1, 29280, Note_off_c, 2, 60, 0
1, 29280, Note_on_c, 2, 62, 100
1, 29520, Note_off_c, 2, 62, 0
1, 29520, Note_on_c, 2, 59, 100
1, 30000, Note_off_c, 2, 59, 0
1, 30000, Note_on_c, 2, 57, 100
1, 30240, Note_off_c, 2, 57, 0
1, 30240, Note_on_c, 2, 57, 100
1, 30480, Note_off_c, 2, 57, 0
1, 30480, Note_on_c, 2, 57, 100
1, 30720, Note_off_c, 2, 57, 0
1, 30720, Note_on_c, 2, 57, 100
1, 32640, Note_off_c, 2, 57, 0
1, 33840, Note_on_c, 2, 57, 100
1, 34080, Note_off_c, 2, 57, 0
1, 34080, Note_on_c, 2, 60, 100
1, 34320, Note_off_c, 2, 60, 0
1, 34320, Note_on_c, 2, 62, 100
1, 34560, Note_off_c, 2, 62, 0
1, 34560, Note_on_c, 2, 64, 100
1, 35040, Note_off_c, 2, 64, 0
1, 35040, Note_on_c, 2, 60, 100
1, 35280, Note_off_c, 2, 60, 0
1, 35280, Note_on_c, 2, 64, 100
1, 35520, Note_off_c, 2, 64, 0
1, 35520, Note_on_c, 2, 62, 100
1, 36000, Note_off_c, 2, 62, 0
1, 36000, Note_on_c, 2, 60, 100
1, 36240, Note_off_c, 2, 60, 0
1, 36240, Note_on_c, 2, 59, 100
1, 36480, Note_off_c, 2, 59, 0
1, 36480, Note_on_c, 2, 57, 100
1, 37920, Note_off_c, 2, 57, 0
1, 37920, Note_on_c, 2, 60, 100
1, 38160, Note_off_c, 2, 60, 0
1, 38160, Note_on_c, 2, 62, 100
1, 38400, Note_off_c, 2, 62, 0
1, 38400, Note_on_c, 2, 64, 100
1, 38880, Note_off_c, 2, 64, 0
1, 38880, Note_on_c, 2, 67, 100
1, 39120, Note_off_c, 2, 67, 0
1, 39120, Note_on_c, 2, 64, 100
1, 39600, Note_off_c, 2, 64, 0
1, 39600, Note_on_c, 2, 60, 100
1, 39840, Note_off_c, 2, 60, 0
1, 39840, Note_on_c, 2, 62, 100
1, 40080, Note_off_c, 2, 62, 0
1, 40080, Note_on_c, 2, 64, 100
1, 40320, Note_off_c, 2, 64, 0
1, 40320, Note_on_c, 2, 60, 100
1, 40800, Note_off_c, 2, 60, 0
1, 40800, Note_on_c, 2, 62, 100
1, 41040, Note_off_c, 2, 62, 0
1, 41040, Note_on_c, 2, 59, 100
1, 41520, Note_off_c, 2, 59, 0
1, 41520, Note_on_c, 2, 57, 100
1, 41760, Note_off_c, 2, 57, 0
1, 41760, Note_on_c, 2, 57, 100
1, 42000, Note_off_c, 2, 57, 0
1, 42000, Note_on_c, 2, 57, 100
1, 42240, Note_off_c, 2, 57, 0
1, 42240, Note_on_c, 2, 57, 100
1, 42720, Note_off_c, 2, 57, 0
1, 42720, Note_on_c, 2, 59, 100
1, 43433, Note_off_c, 2, 59, 0
1, 43440, Note_on_c, 2, 57, 100
1, 43680, Note_off_c, 2, 57, 0
1, 43680, Note_on_c, 2, 62, 100
1, 43920, Note_off_c, 2, 62, 0
1, 43920, Note_on_c, 2, 62, 100
1, 44160, Note_off_c, 2, 62, 0
1, 44160, Note_on_c, 2, 60, 100
1, 44640, Note_off_c, 2, 60, 0
1, 44640, Note_on_c, 2, 62, 100
1, 44880, Note_off_c, 2, 62, 0
1, 44880, Note_on_c, 2, 59, 100
1, 45360, Note_off_c, 2, 59, 0
1, 45360, Note_on_c, 2, 57, 100
1, 45600, Note_off_c, 2, 57, 0
1, 45600, Note_on_c, 2, 57, 100
1, 45840, Note_off_c, 2, 57, 0
1, 45840, Note_on_c, 2, 57, 100
1, 46080, Note_off_c, 2, 57, 0
1, 46080, Note_on_c, 2, 57, 100
1, 48000, Note_off_c, 2, 57, 0
1, 49200, Note_on_c, 2, 57, 100
1, 49440, Note_off_c, 2, 57, 0
1, 49440, Note_on_c, 2, 60, 100
1, 49680, Note_off_c, 2, 60, 0
1, 49680, Note_on_c, 2, 62, 100
1, 49920, Note_off_c, 2, 62, 0
1, 49920, Note_on_c, 2, 64, 100
1, 50400, Note_off_c, 2, 64, 0
1, 50400, Note_on_c, 2, 60, 100
1, 50640, Note_off_c, 2, 60, 0
1, 50640, Note_on_c, 2, 64, 100
1, 50880, Note_off_c, 2, 64, 0
1, 50880, Note_on_c, 2, 62, 100
1, 51360, Note_off_c, 2, 62, 0
1, 51360, Note_on_c, 2, 60, 100
1, 51600, Note_off_c, 2, 60, 0
1, 51600, Note_on_c, 2, 59, 100
1, 51840, Note_off_c, 2, 59, 0
1, 51840, Note_on_c, 2, 57, 100
1, 53280, Note_off_c, 2, 57, 0
1, 53280, Note_on_c, 2, 60, 100
1, 53520, Note_off_c, 2, 60, 0
1, 53520, Note_on_c, 2, 62, 100
1, 53760, Note_off_c, 2, 62, 0
1, 53760, Note_on_c, 2, 64, 100
1, 54240, Note_off_c, 2, 64, 0
1, 54240, Note_on_c, 2, 67, 100
1, 54480, Note_off_c, 2, 67, 0
1, 54480, Note_on_c, 2, 64, 100
1, 54960, Note_off_c, 2, 64, 0
1, 54960, Note_on_c, 2, 60, 100
1, 55200, Note_off_c, 2, 60, 0
1, 55200, Note_on_c, 2, 62, 100
1, 55440, Note_off_c, 2, 62, 0
1, 55440, Note_on_c, 2, 64, 100
1, 55680, Note_off_c, 2, 64, 0
1, 55680, Note_on_c, 2, 60, 100
1, 56160, Note_off_c, 2, 60, 0
1, 56160, Note_on_c, 2, 62, 100
1, 56400, Note_off_c, 2, 62, 0
1, 56400, Note_on_c, 2, 59, 100
1, 56880, Note_off_c, 2, 59, 0
1, 56880, Note_on_c, 2, 57, 100
1, 57120, Note_off_c, 2, 57, 0
1, 57120, Note_on_c, 2, 57, 100
1, 57360, Note_off_c, 2, 57, 0
1, 57360, Note_on_c, 2, 57, 100
1, 57600, Note_off_c, 2, 57, 0
1, 57600, Note_on_c, 2, 57, 100
1, 58080, Note_off_c, 2, 57, 0
1, 58080, Note_on_c, 2, 59, 100
1, 58793, Note_off_c, 2, 59, 0
1, 58800, Note_on_c, 2, 57, 100
1, 59040, Note_off_c, 2, 57, 0
1, 59040, Note_on_c, 2, 62, 100
1, 59280, Note_off_c, 2, 62, 0
1, 59280, Note_on_c, 2, 62, 100
1, 59520, Note_off_c, 2, 62, 0
1, 59520, Note_on_c, 2, 60, 100
1, 60000, Note_off_c, 2, 60, 0
1, 60000, Note_on_c, 2, 62, 100
1, 60240, Note_off_c, 2, 62, 0
1, 60240, Note_on_c, 2, 59, 100
1, 60720, Note_off_c, 2, 59, 0
1, 60720, Note_on_c, 2, 57, 100
1, 60960, Note_off_c, 2, 57, 0
1, 60960, Note_on_c, 2, 57, 100
1, 61200, Note_off_c, 2, 57, 0
1, 61200, Note_on_c, 2, 57, 100
1, 61440, Note_off_c, 2, 57, 0
1, 61440, Note_on_c, 2, 57, 100
1, 63360, Note_off_c, 2, 57, 0
1, 64560, Note_on_c, 2, 57, 100
1, 64800, Note_off_c, 2, 57, 0
1, 64800, Note_on_c, 2, 60, 100
1, 65040, Note_off_c, 2, 60, 0
1, 65040, Note_on_c, 2, 62, 100
1, 65280, Note_off_c, 2, 62, 0
1, 65280, Note_on_c, 2, 64, 100
1, 65760, Note_off_c, 2, 64, 0
1, 65760, Note_on_c, 2, 60, 100
1, 66000, Note_off_c, 2, 60, 0
1, 66000, Note_on_c, 2, 64, 100
1, 66240, Note_off_c, 2, 64, 0
1, 66240, Note_on_c, 2, 62, 100
1, 66720, Note_off_c, 2, 62, 0
1, 66720, Note_on_c, 2, 60, 100
1, 66960, Note_off_c, 2, 60, 0
1, 66960, Note_on_c, 2, 59, 100
1, 67200, Note_off_c, 2, 59, 0
1, 67200, Note_on_c, 2, 57, 100
1, 68640, Note_off_c, 2, 57, 0
1, 68640, Note_on_c, 2, 60, 100
1, 68880, Note_off_c, 2, 60, 0
1, 68880, Note_on_c, 2, 62, 100
1, 69120, Note_off_c, 2, 62, 0
1, 69120, Note_on_c, 2, 64, 100
1, 69600, Note_off_c, 2, 64, 0
1, 69600, Note_on_c, 2, 67, 100
1, 69840, Note_off_c, 2, 67, 0
1, 69840, Note_on_c, 2, 64, 100
1, 70320, Note_off_c, 2, 64, 0
1, 70320, Note_on_c, 2, 60, 100
1, 70560, Note_off_c, 2, 60, 0
1, 70560, Note_on_c, 2, 62, 100
1, 70800, Note_off_c, 2, 62, 0
1, 70800, Note_on_c, 2, 64, 100
1, 71040, Note_off_c, 2, 64, 0
1, 71040, Note_on_c, 2, 60, 100
1, 71520, Note_off_c, 2, 60, 0
1, 71520, Note_on_c, 2, 62, 100
1, 71760, Note_off_c, 2, 62, 0
1, 71760, Note_on_c, 2, 59, 100
1, 72240, Note_off_c, 2, 59, 0
1, 72240, Note_on_c, 2, 57, 100
1, 72480, Note_off_c, 2, 57, 0
1, 72480, Note_on_c, 2, 57, 100
1, 72720, Note_off_c, 2, 57, 0
1, 72720, Note_on_c, 2, 57, 100
1, 72960, Note_off_c, 2, 57, 0
1, 72960, Note_on_c, 2, 57, 100
1, 73440, Note_off_c, 2, 57, 0
1, 73440, Note_on_c, 2, 59, 100
1, 74153, Note_off_c, 2, 59, 0
1, 74160, Note_on_c, 2, 57, 100
1, 74400, Note_off_c, 2, 57, 0
1, 74400, Note_on_c, 2, 62, 100
1, 74640, Note_off_c, 2, 62, 0
1, 74640, Note_on_c, 2, 62, 100
1, 74880, Note_off_c, 2, 62, 0
1, 74880, Note_on_c, 2, 60, 100
1, 75360, Note_off_c, 2, 60, 0
1, 75360, Note_on_c, 2, 62, 100
1, 75600, Note_off_c, 2, 62, 0
1, 75600, Note_on_c, 2, 59, 100
1, 76080, Note_off_c, 2, 59, 0
1, 76080, Note_on_c, 2, 57, 100
1, 76320, Note_off_c, 2, 57, 0
1, 76320, Note_on_c, 2, 57, 100
1, 76560, Note_off_c, 2, 57, 0
1, 76560, Note_on_c, 2, 57, 100
1, 76800, Note_off_c, 2, 57, 0
1, 76800, Note_on_c, 2, 57, 100
1, 78720, Note_off_c, 2, 57, 0
1, 80640, Control_c, 2, 64, 0
1, 80640, Control_c, 2, 121, 0
1, 80744, End_track
0, 0, End_of_file
