0, 0, Header, 1, 1, 120
1, 0, Start_track
1, 0, Time_signature, 2, 2, 24, 8
1, 0, Tempo, 487804
1, 0, MIDI_port, 0
1, 0, Program_c, 6, 10
1, 0, Control_c, 6, 7, 110
1, 0, Control_c, 6, 10, 64
1, 120, Control_c, 6, 11, 127
1, 240, Control_c, 6, 91, 100
1, 240, Control_c, 6, 93, 0
1, 240, Note_on_c, 6, 67, 100
1, 360, Note_off_c, 6, 67, 0
1, 360, Note_on_c, 6, 69, 100
1, 420, Note_off_c, 6, 69, 0
1, 420, Note_on_c, 6, 72, 100
1, 480, Note_off_c, 6, 72, 0
1, 480, Note_on_c, 6, 72, 100
1, 540, Note_off_c, 6, 72, 0
1, 540, Note_on_c, 6, 72, 100
1, 600, Note_off_c, 6, 72, 0
1, 600, Note_on_c, 6, 74, 100
1, 660, Note_off_c, 6, 74, 0
1, 660, Note_on_c, 6, 72, 100
1, 720, Note_off_c, 6, 72, 0
1, 720, Note_on_c, 6, 67, 100
1, 780, Note_off_c, 6, 67, 0
1, 780, Note_on_c, 6, 67, 100
1, 840, Note_off_c, 6, 67, 0
1, 840, Note_on_c, 6, 69, 100
1, 900, Note_off_c, 6, 69, 0
1, 900, Note_on_c, 6, 72, 100
1, 960, Note_off_c, 6, 72, 0
1, 960, Note_on_c, 6, 72, 100
1, 1200, Note_off_c, 6, 72, 0
1, 1200, Note_on_c, 6, 67, 100
1, 1260, Note_off_c, 6, 67, 0
1, 1260, Note_on_c, 6, 67, 100
1, 1320, Note_off_c, 6, 67, 0
1, 1320, Note_on_c, 6, 69, 100
1, 1380, Note_off_c, 6, 69, 0
1, 1380, Note_on_c, 6, 67, 100
1, 1440, Note_off_c, 6, 67, 0
1, 1440, Note_on_c, 6, 64, 100
1, 1500, Note_off_c, 6, 64, 0
1, 1500, Note_on_c, 6, 64, 100
1, 1560, Note_off_c, 6, 64, 0
1, 1560, Note_on_c, 6, 62, 100
1, 1620, Note_off_c, 6, 62, 0
1, 1620, Note_on_c, 6, 64, 100
1, 1680, Note_off_c, 6, 64, 0
1, 1680, Note_on_c, 6, 67, 100
1, 1740, Note_off_c, 6, 67, 0
1, 1740, Note_on_c, 6, 67, 100
1, 1800, Note_off_c, 6, 67, 0
1, 1800, Note_on_c, 6, 64, 100
1, 1860, Note_off_c, 6, 64, 0
1, 1860, Note_on_c, 6, 62, 100
1, 1920, Note_off_c, 6, 62, 0
1, 1920, Note_on_c, 6, 60, 100
1, 2160, Note_off_c, 6, 60, 0
1, 2160, Note_on_c, 6, 67, 100
1, 2280, Note_off_c, 6, 67, 0
1, 2280, Note_on_c, 6, 69, 100
1, 2340, Note_off_c, 6, 69, 0
1, 2340, Note_on_c, 6, 72, 100
1, 2400, Note_off_c, 6, 72, 0
1, 2400, Note_on_c, 6, 72, 100
1, 2460, Note_off_c, 6, 72, 0
1, 2460, Note_on_c, 6, 72, 100
1, 2520, Note_off_c, 6, 72, 0
1, 2520, Note_on_c, 6, 74, 100
1, 2580, Note_off_c, 6, 74, 0
1, 2580, Note_on_c, 6, 72, 100
1, 2640, Note_off_c, 6, 72, 0
1, 2640, Note_on_c, 6, 67, 100
1, 2760, Note_off_c, 6, 67, 0
1, 2760, Note_on_c, 6, 69, 100
1, 2820, Note_off_c, 6, 69, 0
1, 2820, Note_on_c, 6, 72, 100
1, 2880, Note_off_c, 6, 72, 0
1, 2880, Note_on_c, 6, 72, 100
1, 3120, Note_off_c, 6, 72, 0
1, 3120, Note_on_c, 6, 67, 100
1, 3240, Note_off_c, 6, 67, 0
1, 3240, Note_on_c, 6, 69, 100
1, 3300, Note_off_c, 6, 69, 0
1, 3300, Note_on_c, 6, 67, 100
1, 3360, Note_off_c, 6, 67, 0
1, 3360, Note_on_c, 6, 64, 100
1, 3420, Note_off_c, 6, 64, 0
1, 3420, Note_on_c, 6, 64, 100
1, 3480, Note_off_c, 6, 64, 0
1, 3480, Note_on_c, 6, 62, 100
1, 3540, Note_off_c, 6, 62, 0
1, 3540, Note_on_c, 6, 64, 100
1, 3600, Note_off_c, 6, 64, 0
1, 3600, Note_on_c, 6, 67, 100
1, 3720, Note_off_c, 6, 67, 0
1, 3720, Note_on_c, 6, 64, 100
1, 3780, Note_off_c, 6, 64, 0
1, 3780, Note_on_c, 6, 62, 100
1, 3840, Note_off_c, 6, 62, 0
1, 3840, Note_on_c, 6, 60, 100
1, 4080, Note_off_c, 6, 60, 0
1, 4080, Note_on_c, 6, 67, 100
1, 4200, Note_off_c, 6, 67, 0
1, 4200, Note_on_c, 6, 69, 100
1, 4260, Note_off_c, 6, 69, 0
1, 4260, Note_on_c, 6, 72, 100
1, 4320, Note_off_c, 6, 72, 0
1, 4320, Note_on_c, 6, 72, 100
1, 4380, Note_off_c, 6, 72, 0
1, 4380, Note_on_c, 6, 72, 100
1, 4440, Note_off_c, 6, 72, 0
1, 4440, Note_on_c, 6, 74, 100
1, 4500, Note_off_c, 6, 74, 0
1, 4500, Note_on_c, 6, 72, 100
1, 4560, Note_off_c, 6, 72, 0
1, 4560, Note_on_c, 6, 67, 100
1, 4620, Note_off_c, 6, 67, 0
1, 4620, Note_on_c, 6, 67, 100
1, 4680, Note_off_c, 6, 67, 0
1, 4680, Note_on_c, 6, 69, 100
1, 4740, Note_off_c, 6, 69, 0
1, 4740, Note_on_c, 6, 72, 100
1, 4800, Note_off_c, 6, 72, 0
1, 4800, Note_on_c, 6, 72, 100
1, 5040, Note_off_c, 6, 72, 0
1, 5040, Note_on_c, 6, 67, 100
1, 5100, Note_off_c, 6, 67, 0
1, 5100, Note_on_c, 6, 67, 100
1, 5160, Note_off_c, 6, 67, 0
1, 5160, Note_on_c, 6, 69, 100
1, 5220, Note_off_c, 6, 69, 0
1, 5220, Note_on_c, 6, 67, 100
1, 5280, Note_off_c, 6, 67, 0
1, 5280, Note_on_c, 6, 64, 100
1, 5340, Note_off_c, 6, 64, 0
1, 5340, Note_on_c, 6, 64, 100
1, 5400, Note_off_c, 6, 64, 0
1, 5400, Note_on_c, 6, 62, 100
1, 5460, Note_off_c, 6, 62, 0
1, 5460, Note_on_c, 6, 64, 100
1, 5520, Note_off_c, 6, 64, 0
1, 5520, Note_on_c, 6, 67, 100
1, 5580, Note_off_c, 6, 67, 0
1, 5580, Note_on_c, 6, 67, 100
1, 5640, Note_off_c, 6, 67, 0
1, 5640, Note_on_c, 6, 64, 100
1, 5700, Note_off_c, 6, 64, 0
1, 5700, Note_on_c, 6, 62, 100
1, 5760, Note_off_c, 6, 62, 0
1, 5760, Note_on_c, 6, 60, 100
1, 6000, Note_off_c, 6, 60, 0
1, 6000, Note_on_c, 6, 67, 100
1, 6120, Note_off_c, 6, 67, 0
1, 6120, Note_on_c, 6, 69, 100
1, 6180, Note_off_c, 6, 69, 0
1, 6180, Note_on_c, 6, 72, 100
1, 6240, Note_off_c, 6, 72, 0
1, 6240, Note_on_c, 6, 72, 100
1, 6300, Note_off_c, 6, 72, 0
1, 6300, Note_on_c, 6, 72, 100
1, 6360, Note_off_c, 6, 72, 0
1, 6360, Note_on_c, 6, 74, 100
1, 6420, Note_off_c, 6, 74, 0
1, 6420, Note_on_c, 6, 72, 100
1, 6480, Note_off_c, 6, 72, 0
1, 6480, Note_on_c, 6, 67, 100
1, 6600, Note_off_c, 6, 67, 0
1, 6600, Note_on_c, 6, 69, 100
1, 6660, Note_off_c, 6, 69, 0
1, 6660, Note_on_c, 6, 72, 100
1, 6720, Note_off_c, 6, 72, 0
1, 6720, Note_on_c, 6, 72, 100
1, 6960, Note_off_c, 6, 72, 0
1, 6960, Note_on_c, 6, 67, 100
1, 7080, Note_off_c, 6, 67, 0
1, 7080, Note_on_c, 6, 69, 100
1, 7140, Note_off_c, 6, 69, 0
1, 7140, Note_on_c, 6, 67, 100
1, 7200, Note_off_c, 6, 67, 0
1, 7200, Note_on_c, 6, 64, 100
1, 7260, Note_off_c, 6, 64, 0
1, 7260, Note_on_c, 6, 64, 100
1, 7320, Note_off_c, 6, 64, 0
1, 7320, Note_on_c, 6, 62, 100
1, 7380, Note_off_c, 6, 62, 0
1, 7380, Note_on_c, 6, 64, 100
1, 7440, Note_off_c, 6, 64, 0
1, 7440, Note_on_c, 6, 67, 100
1, 7560, Note_off_c, 6, 67, 0
1, 7560, Note_on_c, 6, 64, 100
1, 7620, Note_off_c, 6, 64, 0
1, 7620, Note_on_c, 6, 62, 100
1, 7680, Note_off_c, 6, 62, 0
1, 7680, Note_on_c, 6, 60, 100
1, 7920, Note_off_c, 6, 60, 0
1, 7920, Note_on_c, 6, 67, 100
1, 8040, Note_off_c, 6, 67, 0
1, 8040, Note_on_c, 6, 69, 100
1, 8100, Note_off_c, 6, 69, 0
1, 8100, Note_on_c, 6, 72, 100
1, 8160, Note_off_c, 6, 72, 0
1, 8160, Note_on_c, 6, 72, 100
1, 8220, Note_off_c, 6, 72, 0
1, 8220, Note_on_c, 6, 72, 100
1, 8280, Note_off_c, 6, 72, 0
1, 8280, Note_on_c, 6, 74, 100
1, 8340, Note_off_c, 6, 74, 0
1, 8340, Note_on_c, 6, 72, 100
1, 8400, Note_off_c, 6, 72, 0
1, 8400, Note_on_c, 6, 67, 100
1, 8460, Note_off_c, 6, 67, 0
1, 8460, Note_on_c, 6, 67, 100
1, 8520, Note_off_c, 6, 67, 0
1, 8520, Note_on_c, 6, 69, 100
1, 8580, Note_off_c, 6, 69, 0
1, 8580, Note_on_c, 6, 72, 100
1, 8640, Note_off_c, 6, 72, 0
1, 8640, Note_on_c, 6, 72, 100
1, 8880, Note_off_c, 6, 72, 0
1, 8880, Note_on_c, 6, 67, 100
1, 8940, Note_off_c, 6, 67, 0
1, 8940, Note_on_c, 6, 67, 100
1, 9000, Note_off_c, 6, 67, 0
1, 9000, Note_on_c, 6, 69, 100
1, 9060, Note_off_c, 6, 69, 0
1, 9060, Note_on_c, 6, 67, 100
1, 9120, Note_off_c, 6, 67, 0
1, 9120, Note_on_c, 6, 64, 100
1, 9180, Note_off_c, 6, 64, 0
1, 9180, Note_on_c, 6, 64, 100
1, 9240, Note_off_c, 6, 64, 0
1, 9240, Note_on_c, 6, 62, 100
1, 9300, Note_off_c, 6, 62, 0
1, 9300, Note_on_c, 6, 64, 100
1, 9360, Note_off_c, 6, 64, 0
1, 9360, Note_on_c, 6, 67, 100
1, 9420, Note_off_c, 6, 67, 0
1, 9420, Note_on_c, 6, 67, 100
1, 9480, Note_off_c, 6, 67, 0
1, 9480, Note_on_c, 6, 64, 100
1, 9540, Note_off_c, 6, 64, 0
1, 9540, Note_on_c, 6, 62, 100
1, 9600, Note_off_c, 6, 62, 0
1, 9600, Note_on_c, 6, 60, 100
1, 9840, Note_off_c, 6, 60, 0
1, 9840, Note_on_c, 6, 67, 100
1, 9960, Note_off_c, 6, 67, 0
1, 9960, Note_on_c, 6, 69, 100
1, 10020, Note_off_c, 6, 69, 0
1, 10020, Note_on_c, 6, 72, 100
1, 10080, Note_off_c, 6, 72, 0
1, 10080, Note_on_c, 6, 72, 100
1, 10140, Note_off_c, 6, 72, 0
1, 10140, Note_on_c, 6, 72, 100
1, 10200, Note_off_c, 6, 72, 0
1, 10200, Note_on_c, 6, 74, 100
1, 10260, Note_off_c, 6, 74, 0
1, 10260, Note_on_c, 6, 72, 100
1, 10320, Note_off_c, 6, 72, 0
1, 10320, Note_on_c, 6, 67, 100
1, 10440, Note_off_c, 6, 67, 0
1, 10440, Note_on_c, 6, 69, 100
1, 10500, Note_off_c, 6, 69, 0
1, 10500, Note_on_c, 6, 72, 100
1, 10560, Note_off_c, 6, 72, 0
1, 10560, Note_on_c, 6, 72, 100
1, 10800, Note_off_c, 6, 72, 0
1, 10800, Note_on_c, 6, 67, 100
1, 10920, Note_off_c, 6, 67, 0
1, 10920, Note_on_c, 6, 69, 100
1, 10980, Note_off_c, 6, 69, 0
1, 10980, Note_on_c, 6, 67, 100
1, 11040, Note_off_c, 6, 67, 0
1, 11040, Note_on_c, 6, 64, 100
1, 11100, Note_off_c, 6, 64, 0
1, 11100, Note_on_c, 6, 64, 100
1, 11160, Note_off_c, 6, 64, 0
1, 11160, Note_on_c, 6, 62, 100
1, 11220, Note_off_c, 6, 62, 0
1, 11220, Note_on_c, 6, 64, 100
1, 11280, Note_off_c, 6, 64, 0
1, 11280, Note_on_c, 6, 67, 100
1, 11400, Note_off_c, 6, 67, 0
1, 11400, Note_on_c, 6, 64, 100
1, 11460, Note_off_c, 6, 64, 0
1, 11460, Note_on_c, 6, 62, 100
1, 11520, Note_off_c, 6, 62, 0
1, 11520, Note_on_c, 6, 60, 100
1, 11760, Note_off_c, 6, 60, 0
1, 12084, End_track
0, 0, End_of_file
