0, 0, Header, 1, 1, 480
1, 0, Start_track
1, 0, Time_signature, 4, 2, 24, 8
1, 0, Tempo, 333333
1, 0, MIDI_port, 0
1, 0, Title_t, "Electric Grand Piano"
1, 0, Program_c, 2, 2
1, 0, Control_c, 2, 7, 105
1, 0, Control_c, 2, 10, 64
1, 90, Note_on_c, 2, 72, 100
1, 1440, Note_on_c, 2, 67, 100
1, 1453, Note_off_c, 2, 72, 0
1, 1680, Note_off_c, 2, 67, 0
1, 1680, Note_on_c, 2, 69, 100
1, 1920, Note_off_c, 2, 69, 0
1, 1920, Note_on_c, 2, 67, 100
1, 3360, Note_off_c, 2, 67, 0
1, 3360, Note_on_c, 2, 64, 100
1, 3600, Note_off_c, 2, 64, 0
1, 3600, Note_on_c, 2, 65, 100
1, 3840, Note_off_c, 2, 65, 0
1, 3840, Note_on_c, 2, 64, 100
1, 5280, Note_off_c, 2, 64, 0
1, 5280, Note_on_c, 2, 62, 100
1, 5760, Note_off_c, 2, 62, 0
1, 5760, Note_on_c, 2, 60, 100
1, 7680, Note_off_c, 2, 60, 0
1, 8160, Note_on_c, 2, 72, 100
1, 8400, Note_off_c, 2, 72, 0
1, 8400, Note_on_c, 2, 72, 100
1, 8640, Note_off_c, 2, 72, 0
1, 8640, Note_on_c, 2, 72, 100
1, 9120, Note_off_c, 2, 72, 0
1, 9120, Note_on_c, 2, 72, 100
1, 9600, Note_off_c, 2, 72, 0
1, 9600, Note_on_c, 2, 72, 100
1, 10080, Note_off_c, 2, 72, 0
1, 10080, Note_on_c, 2, 67, 100
1, 10320, Note_off_c, 2, 67, 0
1, 10320, Note_on_c, 2, 64, 100
1, 11280, Note_off_c, 2, 64, 0
1, 11280, Note_on_c, 2, 67, 100
1, 11520, Note_off_c, 2, 67, 0
1, 11520, Note_on_c, 2, 72, 100
1, 12000, Note_off_c, 2, 72, 0
1, 12000, Note_on_c, 2, 72, 100
1, 12480, Note_off_c, 2, 72, 0
1, 12480, Note_on_c, 2, 74, 100
1, 13193, Note_off_c, 2, 74, 0
1, 13200, Note_on_c, 2, 72, 100
1, 13440, Note_off_c, 2, 72, 0
1, 13440, Note_on_c, 2, 71, 100
1, 13920, Note_off_c, 2, 71, 0
1, 13920, Note_on_c, 2, 67, 100
1, 14160, Note_off_c, 2, 67, 0
1, 14160, Note_on_c, 2, 65, 100
1, 15367, Note_off_c, 2, 65, 0
1, 15840, Note_on_c, 2, 71, 100
1, 16073, Note_off_c, 2, 71, 0
1, 16080, Note_on_c, 2, 71, 100
1, 16320, Note_off_c, 2, 71, 0
1, 16320, Note_on_c, 2, 71, 100
1, 16800, Note_off_c, 2, 71, 0
1, 16800, Note_on_c, 2, 71, 100
1, 17033, Note_off_c, 2, 71, 0
1, 17040, Note_on_c, 2, 71, 100
1, 17280, Note_off_c, 2, 71, 0
1, 17280, Note_on_c, 2, 71, 100
1, 17760, Note_off_c, 2, 71, 0
1, 17760, Note_on_c, 2, 67, 100
1, 18000, Note_off_c, 2, 67, 0
1, 18000, Note_on_c, 2, 65, 100
1, 18960, Note_off_c, 2, 65, 0
1, 18960, Note_on_c, 2, 67, 100
1, 19200, Note_off_c, 2, 67, 0
1, 19200, Note_on_c, 2, 67, 100
1, 19680, Note_off_c, 2, 67, 0
1, 19680, Note_on_c, 2, 67, 100
1, 20160, Note_off_c, 2, 67, 0
1, 20160, Note_on_c, 2, 69, 100
1, 20640, Note_off_c, 2, 69, 0
1, 20640, Note_on_c, 2, 71, 100
1, 21120, Note_off_c, 2, 71, 0
1, 21120, Note_on_c, 2, 74, 100
1, 21360, Note_off_c, 2, 74, 0
1, 21360, Note_on_c, 2, 72, 100
1, 23040, Note_on_c, 2, 72, 100
1, 23047, Note_off_c, 2, 72, 0
1, 23520, Note_off_c, 2, 72, 0
1, 23520, Note_on_c, 2, 69, 100
1, 24000, Note_off_c, 2, 69, 0
1, 24000, Note_on_c, 2, 65, 100
1, 24480, Note_off_c, 2, 65, 0
1, 24480, Note_on_c, 2, 69, 100
1, 24960, Note_off_c, 2, 69, 0
1, 24960, Note_on_c, 2, 72, 100
1, 25920, Note_off_c, 2, 72, 0
1, 25920, Note_on_c, 2, 72, 100
1, 26880, Note_off_c, 2, 72, 0
1, 26880, Note_on_c, 2, 71, 100
1, 27360, Note_off_c, 2, 71, 0
1, 27360, Note_on_c, 2, 67, 100
1, 27840, Note_off_c, 2, 67, 0
1, 27840, Note_on_c, 2, 64, 100
1, 28320, Note_off_c, 2, 64, 0
1, 28320, Note_on_c, 2, 71, 100
1, 28800, Note_off_c, 2, 71, 0
1, 28800, Note_on_c, 2, 69, 100
1, 30720, Note_off_c, 2, 69, 0
1, 30720, Note_on_c, 2, 72, 100
1, 31200, Note_off_c, 2, 72, 0
1, 31200, Note_on_c, 2, 69, 100
1, 31680, Note_off_c, 2, 69, 0
1, 31680, Note_on_c, 2, 66, 100
1, 32160, Note_off_c, 2, 66, 0
1, 32160, Note_on_c, 2, 69, 100
1, 32640, Note_off_c, 2, 69, 0
1, 32640, Note_on_c, 2, 72, 100
1, 33120, Note_off_c, 2, 72, 0
1, 33120, Note_on_c, 2, 72, 100
1, 33360, Note_off_c, 2, 72, 0
1, 33360, Note_on_c, 2, 72, 100
1, 34560, Note_on_c, 2, 74, 100
1, 34567, Note_off_c, 2, 72, 0
1, 34800, Note_off_c, 2, 74, 0
1, 34800, Note_on_c, 2, 74, 100
1, 35040, Note_off_c, 2, 74, 0
1, 35040, Note_on_c, 2, 72, 100
1, 35280, Note_off_c, 2, 72, 0
1, 35280, Note_on_c, 2, 72, 100
1, 35520, Note_off_c, 2, 72, 0
1, 35520, Note_on_c, 2, 71, 100
1, 36000, Note_off_c, 2, 71, 0
1, 36000, Note_on_c, 2, 69, 100
1, 36240, Note_off_c, 2, 69, 0
1, 36240, Note_on_c, 2, 67, 100
1, 36480, Note_off_c, 2, 67, 0
1, 36480, Note_on_c, 2, 67, 100
1, 36960, Note_off_c, 2, 67, 0
1, 36960, Note_on_c, 2, 67, 100
1, 37200, Note_off_c, 2, 67, 0
1, 37200, Note_on_c, 2, 67, 100
1, 37440, Note_off_c, 2, 67, 0
1, 37440, Note_on_c, 2, 69, 100
1, 37680, Note_off_c, 2, 69, 0
1, 37680, Note_on_c, 2, 71, 100
1, 38407, Note_off_c, 2, 71, 0
1, 38880, Note_on_c, 2, 72, 100
1, 39120, Note_off_c, 2, 72, 0
1, 39120, Note_on_c, 2, 72, 100
1, 39360, Note_off_c, 2, 72, 0
1, 39360, Note_on_c, 2, 72, 100
1, 39840, Note_off_c, 2, 72, 0
1, 39840, Note_on_c, 2, 72, 100
1, 40320, Note_off_c, 2, 72, 0
1, 40320, Note_on_c, 2, 72, 100
1, 40800, Note_off_c, 2, 72, 0
1, 40800, Note_on_c, 2, 67, 100
1, 41040, Note_off_c, 2, 67, 0
1, 41040, Note_on_c, 2, 64, 100
1, 42000, Note_off_c, 2, 64, 0
1, 42000, Note_on_c, 2, 67, 100
1, 42240, Note_off_c, 2, 67, 0
1, 42240, Note_on_c, 2, 72, 100
1, 42720, Note_off_c, 2, 72, 0
1, 42720, Note_on_c, 2, 72, 100
1, 43200, Note_off_c, 2, 72, 0
1, 43200, Note_on_c, 2, 74, 100
1, 43913, Note_off_c, 2, 74, 0
1, 43920, Note_on_c, 2, 72, 100
1, 44160, Note_off_c, 2, 72, 0
1, 44160, Note_on_c, 2, 71, 100
1, 44640, Note_off_c, 2, 71, 0
1, 44640, Note_on_c, 2, 67, 100
1, 44880, Note_off_c, 2, 67, 0
1, 44880, Note_on_c, 2, 65, 100
1, 46087, Note_off_c, 2, 65, 0
1, 46560, Note_on_c, 2, 71, 100
1, 46793, Note_off_c, 2, 71, 0
1, 46800, Note_on_c, 2, 71, 100
1, 47040, Note_off_c, 2, 71, 0
1, 47040, Note_on_c, 2, 71, 100
1, 47520, Note_off_c, 2, 71, 0
1, 47520, Note_on_c, 2, 71, 100
1, 48000, Note_off_c, 2, 71, 0
1, 48000, Note_on_c, 2, 71, 100
1, 48480, Note_off_c, 2, 71, 0
1, 48480, Note_on_c, 2, 67, 100
1, 48720, Note_off_c, 2, 67, 0
1, 48720, Note_on_c, 2, 65, 100
1, 49680, Note_off_c, 2, 65, 0
1, 49680, Note_on_c, 2, 67, 100
1, 49920, Note_off_c, 2, 67, 0
1, 49920, Note_on_c, 2, 67, 100
1, 50400, Note_off_c, 2, 67, 0
1, 50400, Note_on_c, 2, 67, 100
1, 50880, Note_off_c, 2, 67, 0
1, 50880, Note_on_c, 2, 69, 100
1, 51360, Note_off_c, 2, 69, 0
1, 51360, Note_on_c, 2, 71, 100
1, 51840, Note_off_c, 2, 71, 0
1, 51840, Note_on_c, 2, 74, 100
1, 52080, Note_off_c, 2, 74, 0
1, 52080, Note_on_c, 2, 72, 100
1, 53760, Note_on_c, 2, 67, 100
1, 53767, Note_off_c, 2, 72, 0
1, 54240, Note_off_c, 2, 67, 0
1, 54240, Note_on_c, 2, 64, 100
1, 54720, Note_off_c, 2, 64, 0
1, 54720, Note_on_c, 2, 69, 100
1, 55680, Note_off_c, 2, 69, 0
1, 55680, Note_on_c, 2, 67, 100
1, 56160, Note_off_c, 2, 67, 0
1, 56160, Note_on_c, 2, 64, 100
1, 56640, Note_on_c, 2, 67, 100
1, 56653, Note_off_c, 2, 64, 0
1, 57107, Note_off_c, 2, 67, 0
1, 57120, Note_on_c, 2, 65, 100
1, 57587, Note_off_c, 2, 65, 0
1, 57600, Note_on_c, 2, 65, 100
1, 58080, Note_off_c, 2, 65, 0
1, 58080, Note_on_c, 2, 62, 100
1, 58560, Note_off_c, 2, 62, 0
1, 58560, Note_on_c, 2, 67, 100
1, 59520, Note_off_c, 2, 67, 0
1, 59520, Note_on_c, 2, 65, 100
1, 60000, Note_off_c, 2, 65, 0
1, 60000, Note_on_c, 2, 62, 100
1, 60480, Note_on_c, 2, 65, 100
1, 60493, Note_off_c, 2, 62, 0
1, 60947, Note_off_c, 2, 65, 0
1, 60960, Note_on_c, 2, 64, 100
1, 61427, Note_off_c, 2, 64, 0
1, 61440, Note_on_c, 2, 67, 100
1, 61920, Note_off_c, 2, 67, 0
1, 61920, Note_on_c, 2, 64, 100
1, 62400, Note_off_c, 2, 64, 0
1, 62400, Note_on_c, 2, 69, 100
1, 63360, Note_off_c, 2, 69, 0
1, 63360, Note_on_c, 2, 67, 100
1, 63840, Note_off_c, 2, 67, 0
1, 63840, Note_on_c, 2, 64, 100
1, 64320, Note_on_c, 2, 67, 100
1, 64333, Note_off_c, 2, 64, 0
1, 64787, Note_off_c, 2, 67, 0
1, 64800, Note_on_c, 2, 65, 100
1, 65267, Note_off_c, 2, 65, 0
1, 65280, Note_on_c, 2, 65, 100
1, 65760, Note_off_c, 2, 65, 0
1, 65760, Note_on_c, 2, 62, 100
1, 66240, Note_off_c, 2, 62, 0
1, 66240, Note_on_c, 2, 67, 100
1, 67200, Note_off_c, 2, 67, 0
1, 67200, Note_on_c, 2, 65, 100
1, 67680, Note_off_c, 2, 65, 0
1, 67680, Note_on_c, 2, 62, 100
1, 68160, Note_on_c, 2, 65, 100
1, 68173, Note_off_c, 2, 62, 0
1, 68627, Note_off_c, 2, 65, 0
1, 68640, Note_on_c, 2, 64, 100
1, 69107, Note_off_c, 2, 64, 0
1, 69120, Note_on_c, 2, 67, 100
1, 70080, Note_off_c, 2, 67, 0
1, 70080, Note_on_c, 2, 67, 100
1, 71040, Note_off_c, 2, 67, 0
1, 71040, Note_on_c, 2, 69, 100
1, 71507, Note_off_c, 2, 69, 0
1, 71520, Note_on_c, 2, 69, 100
1, 72960, Note_on_c, 2, 71, 100
1, 72973, Note_off_c, 2, 69, 0
1, 74880, Note_off_c, 2, 71, 0
1, 74880, Note_on_c, 2, 72, 100
1, 76919, Note_off_c, 2, 72, 0
1, 80341, End_track
0, 0, End_of_file
