0, 0, Header, 1, 1, 480
1, 0, Start_track
1, 0, Time_signature, 4, 2, 24, 8
1, 0, Tempo, 408163
1, 0, MIDI_port, 0
1, 0, Channel_prefix, 0
1, 0, Control_c, 0, 10, 64
1, 0, Program_c, 0, 12
1, 0, Control_c, 0, 121, 0
1, 0, Control_c, 0, 64, 0
1, 2905, Note_on_c, 0, 67, 100
1, 3360, Note_on_c, 0, 72, 100
1, 3385, Note_off_c, 0, 67, 0
1, 3840, Note_off_c, 0, 72, 0
1, 3840, Note_on_c, 0, 76, 100
1, 4800, Note_off_c, 0, 76, 0
1, 4812, Note_on_c, 0, 74, 100
1, 5033, Note_on_c, 0, 76, 100
1, 5052, Note_off_c, 0, 74, 0
1, 5526, Note_on_c, 0, 74, 100
1, 5539, Note_off_c, 0, 76, 0
1, 5760, Note_on_c, 0, 72, 100
1, 5766, Note_off_c, 0, 74, 0
1, 6720, Note_off_c, 0, 72, 0
1, 6732, Note_on_c, 0, 67, 100
1, 7200, Note_on_c, 0, 72, 100
1, 7212, Note_off_c, 0, 67, 0
1, 7680, Note_off_c, 0, 72, 0
1, 7692, Note_on_c, 0, 76, 100
1, 8640, Note_off_c, 0, 76, 0
1, 8640, Note_on_c, 0, 76, 100
1, 8878, Note_off_c, 0, 76, 0
1, 8886, Note_on_c, 0, 74, 100
1, 9120, Note_on_c, 0, 76, 100
1, 9126, Note_off_c, 0, 74, 0
1, 9360, Note_off_c, 0, 76, 0
1, 9366, Note_on_c, 0, 77, 100
1, 9600, Note_on_c, 0, 74, 100
1, 9606, Note_off_c, 0, 77, 0
1, 10560, Note_off_c, 0, 74, 0
1, 10572, Note_on_c, 0, 67, 100
1, 11052, Note_off_c, 0, 67, 0
1, 11065, Note_on_c, 0, 72, 100
1, 11520, Note_on_c, 0, 74, 100
1, 11545, Note_off_c, 0, 72, 0
1, 12480, Note_on_c, 0, 77, 100
1, 12480, Note_off_c, 0, 74, 0
1, 12713, Note_on_c, 0, 79, 100
1, 12720, Note_off_c, 0, 77, 0
1, 13206, Note_off_c, 0, 79, 0
1, 13206, Note_on_c, 0, 77, 100
1, 13440, Note_on_c, 0, 76, 100
1, 13446, Note_off_c, 0, 77, 0
1, 14400, Note_on_c, 0, 74, 100
1, 14400, Note_off_c, 0, 76, 0
1, 14633, Note_on_c, 0, 76, 100
1, 14640, Note_off_c, 0, 74, 0
1, 15126, Note_off_c, 0, 76, 0
1, 15126, Note_on_c, 0, 74, 100
1, 15360, Note_on_c, 0, 72, 100
1, 15366, Note_off_c, 0, 74, 0
1, 17760, Note_off_c, 0, 72, 0
1, 18252, Note_on_c, 0, 67, 100
1, 18732, Note_off_c, 0, 67, 0
1, 18732, Note_on_c, 0, 72, 100
1, 19200, Note_on_c, 0, 76, 100
1, 19212, Note_off_c, 0, 72, 0
1, 20160, Note_on_c, 0, 74, 100
1, 20160, Note_off_c, 0, 76, 0
1, 20393, Note_on_c, 0, 76, 100
1, 20400, Note_off_c, 0, 74, 0
1, 20899, Note_on_c, 0, 74, 100
1, 20912, Note_off_c, 0, 76, 0
1, 21120, Note_on_c, 0, 72, 100
1, 21139, Note_off_c, 0, 74, 0
1, 22080, Note_on_c, 0, 67, 100
1, 22080, Note_off_c, 0, 72, 0
1, 22560, Note_off_c, 0, 67, 0
1, 22572, Note_on_c, 0, 72, 100
1, 23052, Note_off_c, 0, 72, 0
1, 23052, Note_on_c, 0, 76, 100
1, 24000, Note_off_c, 0, 76, 0
1, 24000, Note_on_c, 0, 76, 100
1, 24244, Note_off_c, 0, 76, 0
1, 24259, Note_on_c, 0, 74, 100
1, 24480, Note_on_c, 0, 76, 100
1, 24499, Note_off_c, 0, 74, 0
1, 24713, Note_on_c, 0, 77, 100
1, 24720, Note_off_c, 0, 76, 0
1, 24953, Note_off_c, 0, 77, 0
1, 24960, Note_on_c, 0, 74, 100
1, 25920, Note_on_c, 0, 67, 100
1, 25920, Note_off_c, 0, 74, 0
1, 26400, Note_off_c, 0, 67, 0
1, 26412, Note_on_c, 0, 72, 100
1, 26880, Note_on_c, 0, 74, 100
1, 26892, Note_off_c, 0, 72, 0
1, 27840, Note_off_c, 0, 74, 0
1, 27852, Note_on_c, 0, 77, 100
1, 28086, Note_on_c, 0, 79, 100
1, 28092, Note_off_c, 0, 77, 0
1, 28579, Note_off_c, 0, 79, 0
1, 28579, Note_on_c, 0, 77, 100
1, 28812, Note_on_c, 0, 76, 100
1, 28819, Note_off_c, 0, 77, 0
1, 29760, Note_off_c, 0, 76, 0
1, 29772, Note_on_c, 0, 74, 100
1, 29993, Note_on_c, 0, 76, 100
1, 30012, Note_off_c, 0, 74, 0
1, 30473, Note_off_c, 0, 76, 0
1, 30486, Note_on_c, 0, 74, 100
1, 30720, Note_on_c, 0, 72, 100
1, 30726, Note_off_c, 0, 74, 0
1, 32640, Note_off_c, 0, 72, 0
1, 33132, Note_on_c, 0, 67, 100
1, 33612, Note_off_c, 0, 67, 0
1, 33612, Note_on_c, 0, 72, 100
1, 34092, Note_off_c, 0, 72, 0
1, 34092, Note_on_c, 0, 77, 100
1, 34560, Note_on_c, 0, 76, 100
1, 34572, Note_off_c, 0, 77, 0
1, 36480, Note_off_c, 0, 76, 0
1, 36960, Note_on_c, 0, 67, 100
1, 37440, Note_off_c, 0, 67, 0
1, 37452, Note_on_c, 0, 71, 100
1, 37932, Note_off_c, 0, 71, 0
1, 37932, Note_on_c, 0, 74, 100
1, 38400, Note_on_c, 0, 72, 100
1, 38412, Note_off_c, 0, 74, 0
1, 40320, Note_off_c, 0, 72, 0
1, 40812, Note_on_c, 0, 67, 100
1, 41292, Note_off_c, 0, 67, 0
1, 41292, Note_on_c, 0, 72, 100
1, 41772, Note_off_c, 0, 72, 0
1, 41772, Note_on_c, 0, 77, 100
1, 42240, Note_on_c, 0, 76, 100
1, 42252, Note_off_c, 0, 77, 0
1, 44160, Note_off_c, 0, 76, 0
1, 44640, Note_on_c, 0, 67, 100
1, 45120, Note_off_c, 0, 67, 0
1, 45132, Note_on_c, 0, 71, 100
1, 45600, Note_on_c, 0, 74, 100
1, 45612, Note_off_c, 0, 71, 0
1, 46080, Note_off_c, 0, 74, 0
1, 46092, Note_on_c, 0, 72, 100
1, 48000, Note_off_c, 0, 72, 0
1, 49920, Control_c, 0, 64, 0
1, 49920, Control_c, 0, 121, 0
1, 50036, End_track
0, 0, End_of_file
