0, 0, Header, 1, 1, 480
1, 0, Start_track
1, 0, Time_signature, 4, 2, 24, 8
1, 0, Tempo, 461538
1, 0, MIDI_port, 0
1, 0, Title_t, "So"
1, 0, Program_c, 6, 2
1, 0, Control_c, 6, 7, 103
1, 0, Control_c, 6, 10, 64
1, 3360, Note_on_c, 6, 67, 120
1, 3710, Note_off_c, 6, 67, 0
1, 3720, Note_on_c, 6, 65, 120
1, 3840, Note_off_c, 6, 65, 0
1, 3840, Note_on_c, 6, 64, 120
1, 4080, Note_off_c, 6, 64, 0
1, 4080, Note_on_c, 6, 64, 120
1, 4560, Note_off_c, 6, 64, 0
1, 4560, Note_on_c, 6, 64, 120
1, 4800, Note_off_c, 6, 64, 0
1, 4800, Note_on_c, 6, 64, 120
1, 5040, Note_off_c, 6, 64, 0
1, 5040, Note_on_c, 6, 64, 120
1, 5280, Note_off_c, 6, 64, 0
1, 5280, Note_on_c, 6, 63, 120
1, 5520, Note_off_c, 6, 63, 0
1, 5520, Note_on_c, 6, 64, 120
1, 5760, Note_off_c, 6, 64, 0
1, 5760, Note_on_c, 6, 67, 120
1, 6240, Note_off_c, 6, 67, 0
1, 6240, Note_on_c, 6, 65, 120
1, 6720, Note_off_c, 6, 65, 0
1, 7200, Note_on_c, 6, 69, 120
1, 7550, Note_off_c, 6, 69, 0
1, 7560, Note_on_c, 6, 67, 120
1, 7680, Note_off_c, 6, 67, 0
1, 7680, Note_on_c, 6, 65, 120
1, 7920, Note_off_c, 6, 65, 0
1, 7920, Note_on_c, 6, 65, 120
1, 8400, Note_off_c, 6, 65, 0
1, 8400, Note_on_c, 6, 65, 120
1, 8640, Note_on_c, 6, 65, 120
1, 8640, Note_off_c, 6, 65, 0
1, 8880, Note_off_c, 6, 65, 0
1, 8880, Note_on_c, 6, 65, 120
1, 9120, Note_off_c, 6, 65, 0
1, 9120, Note_on_c, 6, 64, 120
1, 9360, Note_off_c, 6, 64, 0
1, 9360, Note_on_c, 6, 65, 120
1, 9600, Note_off_c, 6, 65, 0
1, 9600, Note_on_c, 6, 69, 120
1, 10080, Note_off_c, 6, 69, 0
1, 10080, Note_on_c, 6, 67, 120
1, 10560, Note_off_c, 6, 67, 0
1, 11040, Note_on_c, 6, 67, 120
1, 11390, Note_off_c, 6, 67, 0
1, 11400, Note_on_c, 6, 65, 120
1, 11520, Note_off_c, 6, 65, 0
1, 11520, Note_on_c, 6, 64, 120
1, 11760, Note_off_c, 6, 64, 0
1, 11760, Note_on_c, 6, 64, 120
1, 12240, Note_off_c, 6, 64, 0
1, 12240, Note_on_c, 6, 72, 120
1, 12480, Note_off_c, 6, 72, 0
1, 12480, Note_on_c, 6, 72, 120
1, 12720, Note_off_c, 6, 72, 0
1, 12720, Note_on_c, 6, 72, 120
1, 12960, Note_off_c, 6, 72, 0
1, 12960, Note_on_c, 6, 71, 120
1, 13200, Note_off_c, 6, 71, 0
1, 13200, Note_on_c, 6, 72, 120
1, 13440, Note_off_c, 6, 72, 0
1, 13440, Note_on_c, 6, 74, 120
1, 13920, Note_off_c, 6, 74, 0
1, 13920, Note_on_c, 6, 69, 120
1, 14400, Note_off_c, 6, 69, 0
1, 14640, Note_on_c, 6, 72, 120
1, 14880, Note_off_c, 6, 72, 0
1, 14880, Note_on_c, 6, 71, 120
1, 15120, Note_off_c, 6, 71, 0
1, 15120, Note_on_c, 6, 69, 120
1, 15360, Note_off_c, 6, 69, 0
1, 15360, Note_on_c, 6, 67, 120
1, 15600, Note_off_c, 6, 67, 0
1, 15600, Note_on_c, 6, 69, 120
1, 15840, Note_off_c, 6, 69, 0
1, 15840, Note_on_c, 6, 67, 120
1, 16080, Note_off_c, 6, 67, 0
1, 16080, Note_on_c, 6, 65, 120
1, 16320, Note_off_c, 6, 65, 0
1, 16320, Note_on_c, 6, 64, 120
1, 16800, Note_off_c, 6, 64, 0
1, 16800, Note_on_c, 6, 62, 120
1, 17280, Note_off_c, 6, 62, 0
1, 17280, Note_on_c, 6, 60, 120
1, 18240, Note_off_c, 6, 60, 0
1, 18240, Note_on_c, 6, 60, 120
1, 18720, Note_off_c, 6, 60, 0
1, 18720, Note_on_c, 6, 64, 120
1, 18960, Note_off_c, 6, 64, 0
1, 18960, Note_on_c, 6, 67, 120
1, 19200, Note_off_c, 6, 67, 0
1, 19200, Note_on_c, 6, 72, 120
1, 19680, Note_off_c, 6, 72, 0
1, 19680, Note_on_c, 6, 72, 120
1, 20393, Note_off_c, 6, 72, 0
1, 20400, Note_on_c, 6, 71, 120
1, 20640, Note_off_c, 6, 71, 0
1, 20640, Note_on_c, 6, 69, 120
1, 20880, Note_off_c, 6, 69, 0
1, 20880, Note_on_c, 6, 71, 120
1, 21120, Note_off_c, 6, 71, 0
1, 21120, Note_on_c, 6, 72, 120
1, 21600, Note_off_c, 6, 72, 0
1, 21600, Note_on_c, 6, 67, 120
1, 22313, Note_off_c, 6, 67, 0
1, 22320, Note_on_c, 6, 64, 120
1, 22560, Note_off_c, 6, 64, 0
1, 22560, Note_on_c, 6, 67, 120
1, 22800, Note_off_c, 6, 67, 0
1, 22800, Note_on_c, 6, 72, 120
1, 23040, Note_off_c, 6, 72, 0
1, 23040, Note_on_c, 6, 71, 120
1, 23520, Note_off_c, 6, 71, 0
1, 23520, Note_on_c, 6, 65, 120
1, 24233, Note_off_c, 6, 65, 0
1, 24240, Note_on_c, 6, 62, 120
1, 24480, Note_off_c, 6, 62, 0
1, 24480, Note_on_c, 6, 65, 120
1, 24720, Note_off_c, 6, 65, 0
1, 24720, Note_on_c, 6, 69, 120
1, 24960, Note_off_c, 6, 69, 0
1, 24960, Note_on_c, 6, 67, 120
1, 25440, Note_off_c, 6, 67, 0
1, 25440, Note_on_c, 6, 64, 120
1, 26400, Note_off_c, 6, 64, 0
1, 26400, Note_on_c, 6, 64, 120
1, 26640, Note_off_c, 6, 64, 0
1, 26640, Note_on_c, 6, 67, 120
1, 26880, Note_off_c, 6, 67, 0
1, 26880, Note_on_c, 6, 72, 120
1, 27360, Note_off_c, 6, 72, 0
1, 27360, Note_on_c, 6, 72, 120
1, 28073, Note_off_c, 6, 72, 0
1, 28080, Note_on_c, 6, 72, 120
1, 28320, Note_off_c, 6, 72, 0
1, 28320, Note_on_c, 6, 71, 120
1, 28560, Note_off_c, 6, 71, 0
1, 28560, Note_on_c, 6, 72, 120
1, 28800, Note_off_c, 6, 72, 0
1, 28800, Note_on_c, 6, 74, 120
1, 29280, Note_off_c, 6, 74, 0
1, 29280, Note_on_c, 6, 69, 120
1, 29760, Note_off_c, 6, 69, 0
1, 30000, Note_on_c, 6, 72, 120
1, 30240, Note_off_c, 6, 72, 0
1, 30240, Note_on_c, 6, 71, 120
1, 30480, Note_off_c, 6, 71, 0
1, 30480, Note_on_c, 6, 69, 120
1, 30720, Note_off_c, 6, 69, 0
1, 30720, Note_on_c, 6, 67, 120
1, 30960, Note_off_c, 6, 67, 0
1, 30960, Note_on_c, 6, 69, 120
1, 31200, Note_off_c, 6, 69, 0
1, 31200, Note_on_c, 6, 67, 120
1, 31440, Note_off_c, 6, 67, 0
1, 31440, Note_on_c, 6, 65, 120
1, 31680, Note_off_c, 6, 65, 0
1, 31680, Note_on_c, 6, 64, 120
1, 32160, Note_off_c, 6, 64, 0
1, 32160, Note_on_c, 6, 62, 120
1, 32640, Note_off_c, 6, 62, 0
1, 32640, Note_on_c, 6, 60, 120
1, 34080, Note_off_c, 6, 60, 0
1, 50024, End_track
0, 0, End_of_file
