0, 0, Header, 1, 1, 120
1, 0, Start_track
1, 0, Time_signature, 4, 2, 24, 8
1, 0, Tempo, 600000
1, 0, MIDI_port, 0
1, 0, Program_c, 0, 100
1, 600, Note_on_c, 0, 62, 100
1, 660, Note_off_c, 0, 62, 0
1, 660, Note_on_c, 0, 64, 100
1, 720, Note_off_c, 0, 64, 0
1, 720, Note_on_c, 0, 66, 100
1, 840, Note_off_c, 0, 66, 0
1, 840, Note_on_c, 0, 66, 100
1, 900, Note_on_c, 0, 62, 100
1, 930, Note_off_c, 0, 66, 0
1, 960, Note_off_c, 0, 62, 0
1, 960, Note_on_c, 0, 64, 100
1, 1080, Note_off_c, 0, 64, 0
1, 1140, Note_on_c, 0, 66, 100
1, 1200, Note_off_c, 0, 66, 0
1, 1200, Note_on_c, 0, 64, 100
1, 1260, Note_off_c, 0, 64, 0
1, 1260, Note_on_c, 0, 62, 100
1, 1320, Note_off_c, 0, 62, 0
1, 1320, Note_on_c, 0, 64, 100
1, 1560, Note_off_c, 0, 64, 0
1, 1560, Note_on_c, 0, 61, 100
1, 1620, Note_off_c, 0, 61, 0
1, 1620, Note_on_c, 0, 62, 100
1, 1680, Note_off_c, 0, 62, 0
1, 1680, Note_on_c, 0, 64, 100
1, 1800, Note_off_c, 0, 64, 0
1, 1800, Note_on_c, 0, 67, 100
1, 1920, Note_off_c, 0, 67, 0
1, 1920, Note_on_c, 0, 66, 100
1, 2040, Note_off_c, 0, 66, 0
1, 2100, Note_on_c, 0, 67, 100
1, 2160, Note_off_c, 0, 67, 0
1, 2160, Note_on_c, 0, 66, 100
1, 2220, Note_off_c, 0, 66, 0
1, 2220, Note_on_c, 0, 64, 100
1, 2280, Note_off_c, 0, 64, 0
1, 2280, Note_on_c, 0, 62, 100
1, 2460, Note_off_c, 0, 62, 0
1, 2520, Note_on_c, 0, 59, 100
1, 2580, Note_off_c, 0, 59, 0
1, 2580, Note_on_c, 0, 61, 100
1, 2640, Note_off_c, 0, 61, 0
1, 2640, Note_on_c, 0, 62, 100
1, 2760, Note_off_c, 0, 62, 0
1, 2760, Note_on_c, 0, 64, 100
1, 2880, Note_off_c, 0, 64, 0
1, 2880, Note_on_c, 0, 62, 100
1, 3000, Note_off_c, 0, 62, 0
1, 3060, Note_on_c, 0, 64, 100
1, 3120, Note_off_c, 0, 64, 0
1, 3120, Note_on_c, 0, 62, 100
1, 3180, Note_off_c, 0, 62, 0
1, 3180, Note_on_c, 0, 61, 100
1, 3240, Note_off_c, 0, 61, 0
1, 3240, Note_on_c, 0, 62, 100
1, 3360, Note_off_c, 0, 62, 0
1, 3360, Note_on_c, 0, 59, 100
1, 3480, Note_off_c, 0, 59, 0
1, 3480, Note_on_c, 0, 59, 100
1, 3540, Note_off_c, 0, 59, 0
1, 3540, Note_on_c, 0, 64, 100
1, 3600, Note_off_c, 0, 64, 0
1, 3600, Note_on_c, 0, 62, 100
1, 3720, Note_off_c, 0, 62, 0
1, 3720, Note_on_c, 0, 61, 100
1, 3840, Note_off_c, 0, 61, 0
1, 3840, Note_on_c, 0, 59, 100
1, 3960, Note_off_c, 0, 59, 0
1, 3960, Note_on_c, 0, 66, 100
1, 4080, Note_off_c, 0, 66, 0
1, 4080, Note_on_c, 0, 66, 100
1, 4200, Note_off_c, 0, 66, 0
1, 4320, Note_on_c, 0, 61, 100
1, 4440, Note_off_c, 0, 61, 0
1, 4440, Note_on_c, 0, 61, 100
1, 4500, Note_off_c, 0, 61, 0
1, 4500, Note_on_c, 0, 64, 100
1, 4560, Note_off_c, 0, 64, 0
1, 4560, Note_on_c, 0, 62, 100
1, 4680, Note_off_c, 0, 62, 0
1, 4680, Note_on_c, 0, 61, 100
1, 4800, Note_off_c, 0, 61, 0
1, 4800, Note_on_c, 0, 59, 100
1, 5280, Note_off_c, 0, 59, 0
1, 5400, Note_on_c, 0, 62, 100
1, 5460, Note_off_c, 0, 62, 0
1, 5460, Note_on_c, 0, 64, 100
1, 5520, Note_off_c, 0, 64, 0
1, 5520, Note_on_c, 0, 66, 100
1, 5640, Note_off_c, 0, 66, 0
1, 5640, Note_on_c, 0, 66, 100
1, 5700, Note_on_c, 0, 62, 100
1, 5730, Note_off_c, 0, 66, 0
1, 5760, Note_off_c, 0, 62, 0
1, 5760, Note_on_c, 0, 64, 100
1, 5880, Note_off_c, 0, 64, 0
1, 5940, Note_on_c, 0, 66, 100
1, 6000, Note_off_c, 0, 66, 0
1, 6000, Note_on_c, 0, 64, 100
1, 6060, Note_off_c, 0, 64, 0
1, 6060, Note_on_c, 0, 62, 100
1, 6120, Note_off_c, 0, 62, 0
1, 6120, Note_on_c, 0, 64, 100
1, 6360, Note_off_c, 0, 64, 0
1, 6360, Note_on_c, 0, 61, 100
1, 6420, Note_off_c, 0, 61, 0
1, 6420, Note_on_c, 0, 62, 100
1, 6480, Note_off_c, 0, 62, 0
1, 6480, Note_on_c, 0, 64, 100
1, 6600, Note_off_c, 0, 64, 0
1, 6600, Note_on_c, 0, 67, 100
1, 6720, Note_off_c, 0, 67, 0
1, 6720, Note_on_c, 0, 66, 100
1, 6840, Note_off_c, 0, 66, 0
1, 6900, Note_on_c, 0, 67, 100
1, 6960, Note_off_c, 0, 67, 0
1, 6960, Note_on_c, 0, 66, 100
1, 7020, Note_off_c, 0, 66, 0
1, 7020, Note_on_c, 0, 64, 100
1, 7080, Note_off_c, 0, 64, 0
1, 7080, Note_on_c, 0, 62, 100
1, 7260, Note_off_c, 0, 62, 0
1, 7320, Note_on_c, 0, 59, 100
1, 7380, Note_off_c, 0, 59, 0
1, 7380, Note_on_c, 0, 61, 100
1, 7440, Note_off_c, 0, 61, 0
1, 7440, Note_on_c, 0, 62, 100
1, 7560, Note_off_c, 0, 62, 0
1, 7560, Note_on_c, 0, 64, 100
1, 7680, Note_off_c, 0, 64, 0
1, 7680, Note_on_c, 0, 62, 100
1, 7800, Note_off_c, 0, 62, 0
1, 7860, Note_on_c, 0, 64, 100
1, 7920, Note_off_c, 0, 64, 0
1, 7920, Note_on_c, 0, 62, 100
1, 7980, Note_off_c, 0, 62, 0
1, 7980, Note_on_c, 0, 61, 100
1, 8040, Note_off_c, 0, 61, 0
1, 8040, Note_on_c, 0, 62, 100
1, 8160, Note_off_c, 0, 62, 0
1, 8160, Note_on_c, 0, 59, 100
1, 8280, Note_off_c, 0, 59, 0
1, 8280, Note_on_c, 0, 59, 100
1, 8340, Note_off_c, 0, 59, 0
1, 8340, Note_on_c, 0, 64, 100
1, 8400, Note_off_c, 0, 64, 0
1, 8400, Note_on_c, 0, 62, 100
1, 8520, Note_off_c, 0, 62, 0
1, 8520, Note_on_c, 0, 61, 100
1, 8640, Note_off_c, 0, 61, 0
1, 8640, Note_on_c, 0, 59, 100
1, 8760, Note_off_c, 0, 59, 0
1, 8760, Note_on_c, 0, 66, 100
1, 8880, Note_off_c, 0, 66, 0
1, 8880, Note_on_c, 0, 66, 100
1, 9000, Note_off_c, 0, 66, 0
1, 9120, Note_on_c, 0, 61, 100
1, 9240, Note_off_c, 0, 61, 0
1, 9240, Note_on_c, 0, 61, 100
1, 9300, Note_off_c, 0, 61, 0
1, 9300, Note_on_c, 0, 64, 100
1, 9360, Note_off_c, 0, 64, 0
1, 9360, Note_on_c, 0, 62, 100
1, 9480, Note_off_c, 0, 62, 0
1, 9480, Note_on_c, 0, 61, 100
1, 9600, Note_off_c, 0, 61, 0
1, 9600, Note_on_c, 0, 59, 100
1, 10080, Note_off_c, 0, 59, 0
1, 10200, Note_on_c, 0, 71, 100
1, 10320, Note_off_c, 0, 71, 0
1, 10320, Note_on_c, 0, 71, 100
1, 10440, Note_off_c, 0, 71, 0
1, 10440, Note_on_c, 0, 69, 100
1, 10560, Note_off_c, 0, 69, 0
1, 10560, Note_on_c, 0, 67, 100
1, 10680, Note_off_c, 0, 67, 0
1, 10740, Note_on_c, 0, 69, 100
1, 10800, Note_off_c, 0, 69, 0
1, 10800, Note_on_c, 0, 67, 100
1, 10860, Note_off_c, 0, 67, 0
1, 10860, Note_on_c, 0, 66, 100
1, 10920, Note_off_c, 0, 66, 0
1, 10920, Note_on_c, 0, 64, 100
1, 11160, Note_off_c, 0, 64, 0
1, 11160, Note_on_c, 0, 69, 100
1, 11220, Note_off_c, 0, 69, 0
1, 11220, Note_on_c, 0, 69, 100
1, 11280, Note_off_c, 0, 69, 0
1, 11280, Note_on_c, 0, 69, 100
1, 11400, Note_off_c, 0, 69, 0
1, 11400, Note_on_c, 0, 67, 100
1, 11520, Note_off_c, 0, 67, 0
1, 11520, Note_on_c, 0, 66, 100
1, 11640, Note_off_c, 0, 66, 0
1, 11700, Note_on_c, 0, 67, 100
1, 11760, Note_off_c, 0, 67, 0
1, 11760, Note_on_c, 0, 66, 100
1, 11820, Note_off_c, 0, 66, 0
1, 11820, Note_on_c, 0, 64, 100
1, 11880, Note_off_c, 0, 64, 0
1, 11880, Note_on_c, 0, 62, 100
1, 12120, Note_off_c, 0, 62, 0
1, 12120, Note_on_c, 0, 67, 100
1, 12180, Note_off_c, 0, 67, 0
1, 12180, Note_on_c, 0, 67, 100
1, 12240, Note_off_c, 0, 67, 0
1, 12240, Note_on_c, 0, 67, 100
1, 12360, Note_off_c, 0, 67, 0
1, 12360, Note_on_c, 0, 66, 100
1, 12480, Note_off_c, 0, 66, 0
1, 12480, Note_on_c, 0, 64, 100
1, 12600, Note_off_c, 0, 64, 0
1, 12660, Note_on_c, 0, 66, 100
1, 12720, Note_off_c, 0, 66, 0
1, 12720, Note_on_c, 0, 64, 100
1, 12780, Note_off_c, 0, 64, 0
1, 12780, Note_on_c, 0, 62, 100
1, 12840, Note_off_c, 0, 62, 0
1, 12840, Note_on_c, 0, 61, 100
1, 12960, Note_off_c, 0, 61, 0
1, 12960, Note_on_c, 0, 66, 100
1, 13080, Note_off_c, 0, 66, 0
1, 13080, Note_on_c, 0, 61, 100
1, 13140, Note_off_c, 0, 61, 0
1, 13140, Note_on_c, 0, 62, 100
1, 13200, Note_off_c, 0, 62, 0
1, 13200, Note_on_c, 0, 64, 100
1, 13320, Note_off_c, 0, 64, 0
1, 13320, Note_on_c, 0, 67, 100
1, 13440, Note_off_c, 0, 67, 0
1, 13440, Note_on_c, 0, 66, 100
1, 13980, Note_off_c, 0, 66, 0
1, 14040, Note_on_c, 0, 71, 100
1, 14100, Note_off_c, 0, 71, 0
1, 14100, Note_on_c, 0, 71, 100
1, 14160, Note_off_c, 0, 71, 0
1, 14160, Note_on_c, 0, 71, 100
1, 14280, Note_off_c, 0, 71, 0
1, 14280, Note_on_c, 0, 69, 100
1, 14400, Note_off_c, 0, 69, 0
1, 14400, Note_on_c, 0, 67, 100
1, 14520, Note_off_c, 0, 67, 0
1, 14580, Note_on_c, 0, 69, 100
1, 14640, Note_off_c, 0, 69, 0
1, 14640, Note_on_c, 0, 67, 100
1, 14700, Note_off_c, 0, 67, 0
1, 14700, Note_on_c, 0, 66, 100
1, 14760, Note_off_c, 0, 66, 0
1, 14760, Note_on_c, 0, 64, 100
1, 15000, Note_off_c, 0, 64, 0
1, 15000, Note_on_c, 0, 69, 100
1, 15060, Note_off_c, 0, 69, 0
1, 15060, Note_on_c, 0, 69, 100
1, 15120, Note_off_c, 0, 69, 0
1, 15120, Note_on_c, 0, 69, 100
1, 15240, Note_off_c, 0, 69, 0
1, 15240, Note_on_c, 0, 67, 100
1, 15360, Note_off_c, 0, 67, 0
1, 15360, Note_on_c, 0, 66, 100
1, 15480, Note_off_c, 0, 66, 0
1, 15540, Note_on_c, 0, 67, 100
1, 15600, Note_off_c, 0, 67, 0
1, 15600, Note_on_c, 0, 66, 100
1, 15660, Note_off_c, 0, 66, 0
1, 15660, Note_on_c, 0, 64, 100
1, 15720, Note_off_c, 0, 64, 0
1, 15720, Note_on_c, 0, 62, 100
1, 15960, Note_off_c, 0, 62, 0
1, 15960, Note_on_c, 0, 67, 100
1, 16020, Note_off_c, 0, 67, 0
1, 16020, Note_on_c, 0, 67, 100
1, 16080, Note_off_c, 0, 67, 0
1, 16080, Note_on_c, 0, 67, 100
1, 16200, Note_off_c, 0, 67, 0
1, 16200, Note_on_c, 0, 66, 100
1, 16320, Note_off_c, 0, 66, 0
1, 16320, Note_on_c, 0, 64, 100
1, 16440, Note_off_c, 0, 64, 0
1, 16440, Note_on_c, 0, 64, 100
1, 16500, Note_off_c, 0, 64, 0
1, 16500, Note_on_c, 0, 66, 100
1, 16560, Note_off_c, 0, 66, 0
1, 16560, Note_on_c, 0, 64, 100
1, 16620, Note_off_c, 0, 64, 0
1, 16620, Note_on_c, 0, 62, 100
1, 16680, Note_off_c, 0, 62, 0
1, 16680, Note_on_c, 0, 61, 100
1, 16800, Note_off_c, 0, 61, 0
1, 16800, Note_on_c, 0, 66, 100
1, 16920, Note_off_c, 0, 66, 0
1, 16920, Note_on_c, 0, 61, 100
1, 16980, Note_off_c, 0, 61, 0
1, 16980, Note_on_c, 0, 64, 100
1, 17040, Note_off_c, 0, 64, 0
1, 17040, Note_on_c, 0, 62, 100
1, 17160, Note_off_c, 0, 62, 0
1, 17160, Note_on_c, 0, 61, 100
1, 17280, Note_off_c, 0, 61, 0
1, 17280, Note_on_c, 0, 59, 100
1, 17400, Note_off_c, 0, 59, 0
1, 17400, Note_on_c, 0, 66, 100
1, 17520, Note_off_c, 0, 66, 0
1, 17520, Note_on_c, 0, 66, 100
1, 17640, Note_off_c, 0, 66, 0
1, 17760, Note_on_c, 0, 61, 100
1, 17880, Note_off_c, 0, 61, 0
1, 17940, Note_on_c, 0, 64, 100
1, 18000, Note_off_c, 0, 64, 0
1, 18000, Note_on_c, 0, 62, 100
1, 18120, Note_off_c, 0, 62, 0
1, 18120, Note_on_c, 0, 61, 100
1, 18240, Note_off_c, 0, 61, 0
1, 18840, Note_on_c, 0, 62, 100
1, 18900, Note_off_c, 0, 62, 0
1, 18900, Note_on_c, 0, 64, 100
1, 18960, Note_off_c, 0, 64, 0
1, 18960, Note_on_c, 0, 66, 100
1, 19080, Note_off_c, 0, 66, 0
1, 19080, Note_on_c, 0, 66, 100
1, 19140, Note_on_c, 0, 62, 100
1, 19170, Note_off_c, 0, 66, 0
1, 19200, Note_off_c, 0, 62, 0
1, 19200, Note_on_c, 0, 64, 100
1, 19320, Note_off_c, 0, 64, 0
1, 19380, Note_on_c, 0, 66, 100
1, 19440, Note_off_c, 0, 66, 0
1, 19440, Note_on_c, 0, 64, 100
1, 19500, Note_off_c, 0, 64, 0
1, 19500, Note_on_c, 0, 62, 100
1, 19560, Note_off_c, 0, 62, 0
1, 19560, Note_on_c, 0, 64, 100
1, 19800, Note_off_c, 0, 64, 0
1, 19800, Note_on_c, 0, 61, 100
1, 19860, Note_off_c, 0, 61, 0
1, 19860, Note_on_c, 0, 62, 100
1, 19920, Note_off_c, 0, 62, 0
1, 19920, Note_on_c, 0, 64, 100
1, 20040, Note_off_c, 0, 64, 0
1, 20040, Note_on_c, 0, 67, 100
1, 20160, Note_off_c, 0, 67, 0
1, 20160, Note_on_c, 0, 66, 100
1, 20280, Note_off_c, 0, 66, 0
1, 20340, Note_on_c, 0, 67, 100
1, 20400, Note_off_c, 0, 67, 0
1, 20400, Note_on_c, 0, 66, 100
1, 20460, Note_off_c, 0, 66, 0
1, 20460, Note_on_c, 0, 64, 100
1, 20520, Note_off_c, 0, 64, 0
1, 20520, Note_on_c, 0, 62, 100
1, 20700, Note_off_c, 0, 62, 0
1, 20760, Note_on_c, 0, 59, 100
1, 20820, Note_off_c, 0, 59, 0
1, 20820, Note_on_c, 0, 61, 100
1, 20880, Note_off_c, 0, 61, 0
1, 20880, Note_on_c, 0, 62, 100
1, 21000, Note_off_c, 0, 62, 0
1, 21000, Note_on_c, 0, 64, 100
1, 21120, Note_off_c, 0, 64, 0
1, 21120, Note_on_c, 0, 62, 100
1, 21240, Note_off_c, 0, 62, 0
1, 21300, Note_on_c, 0, 64, 100
1, 21360, Note_off_c, 0, 64, 0
1, 21360, Note_on_c, 0, 62, 100
1, 21420, Note_off_c, 0, 62, 0
1, 21420, Note_on_c, 0, 61, 100
1, 21480, Note_off_c, 0, 61, 0
1, 21480, Note_on_c, 0, 62, 100
1, 21600, Note_off_c, 0, 62, 0
1, 21600, Note_on_c, 0, 59, 100
1, 21720, Note_off_c, 0, 59, 0
1, 21720, Note_on_c, 0, 59, 100
1, 21780, Note_off_c, 0, 59, 0
1, 21780, Note_on_c, 0, 64, 100
1, 21840, Note_off_c, 0, 64, 0
1, 21840, Note_on_c, 0, 62, 100
1, 21960, Note_off_c, 0, 62, 0
1, 21960, Note_on_c, 0, 61, 100
1, 22080, Note_off_c, 0, 61, 0
1, 22080, Note_on_c, 0, 59, 100
1, 22200, Note_off_c, 0, 59, 0
1, 22200, Note_on_c, 0, 66, 100
1, 22320, Note_off_c, 0, 66, 0
1, 22320, Note_on_c, 0, 66, 100
1, 22440, Note_off_c, 0, 66, 0
1, 22560, Note_on_c, 0, 61, 100
1, 22680, Note_off_c, 0, 61, 0
1, 22680, Note_on_c, 0, 61, 100
1, 22740, Note_off_c, 0, 61, 0
1, 22740, Note_on_c, 0, 64, 100
1, 22800, Note_off_c, 0, 64, 0
1, 22800, Note_on_c, 0, 62, 100
1, 22920, Note_off_c, 0, 62, 0
1, 22920, Note_on_c, 0, 61, 100
1, 23040, Note_off_c, 0, 61, 0
1, 23040, Note_on_c, 0, 59, 100
1, 23520, Note_off_c, 0, 59, 0
1, 23640, Note_on_c, 0, 71, 100
1, 23760, Note_off_c, 0, 71, 0
1, 23760, Note_on_c, 0, 71, 100
1, 23880, Note_off_c, 0, 71, 0
1, 23880, Note_on_c, 0, 69, 100
1, 24000, Note_off_c, 0, 69, 0
1, 24000, Note_on_c, 0, 67, 100
1, 24120, Note_off_c, 0, 67, 0
1, 24180, Note_on_c, 0, 69, 100
1, 24240, Note_off_c, 0, 69, 0
1, 24240, Note_on_c, 0, 67, 100
1, 24300, Note_off_c, 0, 67, 0
1, 24300, Note_on_c, 0, 66, 100
1, 24360, Note_off_c, 0, 66, 0
1, 24360, Note_on_c, 0, 64, 100
1, 24600, Note_off_c, 0, 64, 0
1, 24600, Note_on_c, 0, 69, 100
1, 24660, Note_off_c, 0, 69, 0
1, 24660, Note_on_c, 0, 69, 100
1, 24720, Note_off_c, 0, 69, 0
1, 24720, Note_on_c, 0, 69, 100
1, 24840, Note_off_c, 0, 69, 0
1, 24840, Note_on_c, 0, 67, 100
1, 24960, Note_off_c, 0, 67, 0
1, 24960, Note_on_c, 0, 66, 100
1, 25080, Note_off_c, 0, 66, 0
1, 25140, Note_on_c, 0, 67, 100
1, 25200, Note_off_c, 0, 67, 0
1, 25200, Note_on_c, 0, 66, 100
1, 25260, Note_off_c, 0, 66, 0
1, 25260, Note_on_c, 0, 64, 100
1, 25320, Note_off_c, 0, 64, 0
1, 25320, Note_on_c, 0, 62, 100
1, 25560, Note_off_c, 0, 62, 0
1, 25560, Note_on_c, 0, 67, 100
1, 25620, Note_off_c, 0, 67, 0
1, 25620, Note_on_c, 0, 67, 100
1, 25680, Note_off_c, 0, 67, 0
1, 25680, Note_on_c, 0, 67, 100
1, 25800, Note_off_c, 0, 67, 0
1, 25800, Note_on_c, 0, 66, 100
1, 25920, Note_off_c, 0, 66, 0
1, 25920, Note_on_c, 0, 64, 100
1, 26040, Note_off_c, 0, 64, 0
1, 26100, Note_on_c, 0, 66, 100
1, 26160, Note_off_c, 0, 66, 0
1, 26160, Note_on_c, 0, 64, 100
1, 26220, Note_off_c, 0, 64, 0
1, 26220, Note_on_c, 0, 62, 100
1, 26280, Note_off_c, 0, 62, 0
1, 26280, Note_on_c, 0, 61, 100
1, 26400, Note_off_c, 0, 61, 0
1, 26400, Note_on_c, 0, 66, 100
1, 26520, Note_off_c, 0, 66, 0
1, 26520, Note_on_c, 0, 61, 100
1, 26580, Note_off_c, 0, 61, 0
1, 26580, Note_on_c, 0, 62, 100
1, 26640, Note_off_c, 0, 62, 0
1, 26640, Note_on_c, 0, 64, 100
1, 26760, Note_off_c, 0, 64, 0
1, 26760, Note_on_c, 0, 67, 100
1, 26880, Note_off_c, 0, 67, 0
1, 26880, Note_on_c, 0, 66, 100
1, 27420, Note_off_c, 0, 66, 0
1, 27480, Note_on_c, 0, 71, 100
1, 27540, Note_off_c, 0, 71, 0
1, 27540, Note_on_c, 0, 71, 100
1, 27600, Note_off_c, 0, 71, 0
1, 27600, Note_on_c, 0, 71, 100
1, 27720, Note_off_c, 0, 71, 0
1, 27720, Note_on_c, 0, 69, 100
1, 27840, Note_off_c, 0, 69, 0
1, 27840, Note_on_c, 0, 67, 100
1, 27960, Note_off_c, 0, 67, 0
1, 28020, Note_on_c, 0, 69, 100
1, 28080, Note_off_c, 0, 69, 0
1, 28080, Note_on_c, 0, 67, 100
1, 28140, Note_off_c, 0, 67, 0
1, 28140, Note_on_c, 0, 66, 100
1, 28200, Note_off_c, 0, 66, 0
1, 28200, Note_on_c, 0, 64, 100
1, 28440, Note_off_c, 0, 64, 0
1, 28440, Note_on_c, 0, 69, 100
1, 28500, Note_off_c, 0, 69, 0
1, 28500, Note_on_c, 0, 69, 100
1, 28560, Note_off_c, 0, 69, 0
1, 28560, Note_on_c, 0, 69, 100
1, 28680, Note_off_c, 0, 69, 0
1, 28680, Note_on_c, 0, 67, 100
1, 28800, Note_off_c, 0, 67, 0
1, 28800, Note_on_c, 0, 66, 100
1, 28920, Note_off_c, 0, 66, 0
1, 28980, Note_on_c, 0, 67, 100
1, 29040, Note_off_c, 0, 67, 0
1, 29040, Note_on_c, 0, 66, 100
1, 29100, Note_off_c, 0, 66, 0
1, 29100, Note_on_c, 0, 64, 100
1, 29160, Note_off_c, 0, 64, 0
1, 29160, Note_on_c, 0, 62, 100
1, 29400, Note_off_c, 0, 62, 0
1, 29400, Note_on_c, 0, 67, 100
1, 29460, Note_off_c, 0, 67, 0
1, 29460, Note_on_c, 0, 67, 100
1, 29520, Note_off_c, 0, 67, 0
1, 29520, Note_on_c, 0, 67, 100
1, 29640, Note_off_c, 0, 67, 0
1, 29640, Note_on_c, 0, 66, 100
1, 29760, Note_off_c, 0, 66, 0
1, 29760, Note_on_c, 0, 64, 100
1, 29880, Note_off_c, 0, 64, 0
1, 29880, Note_on_c, 0, 64, 100
1, 29940, Note_off_c, 0, 64, 0
1, 29940, Note_on_c, 0, 66, 100
1, 30000, Note_off_c, 0, 66, 0
1, 30000, Note_on_c, 0, 64, 100
1, 30060, Note_off_c, 0, 64, 0
1, 30060, Note_on_c, 0, 62, 100
1, 30120, Note_off_c, 0, 62, 0
1, 30120, Note_on_c, 0, 61, 100
1, 30240, Note_off_c, 0, 61, 0
1, 30240, Note_on_c, 0, 66, 100
1, 30360, Note_off_c, 0, 66, 0
1, 30360, Note_on_c, 0, 61, 100
1, 30420, Note_off_c, 0, 61, 0
1, 30420, Note_on_c, 0, 64, 100
1, 30480, Note_off_c, 0, 64, 0
1, 30480, Note_on_c, 0, 62, 100
1, 30600, Note_off_c, 0, 62, 0
1, 30600, Note_on_c, 0, 61, 100
1, 30720, Note_off_c, 0, 61, 0
1, 30720, Note_on_c, 0, 59, 100
1, 30840, Note_off_c, 0, 59, 0
1, 30840, Note_on_c, 0, 66, 100
1, 30960, Note_off_c, 0, 66, 0
1, 30960, Note_on_c, 0, 66, 100
1, 31080, Note_off_c, 0, 66, 0
1, 31200, Note_on_c, 0, 61, 100
1, 31320, Note_off_c, 0, 61, 0
1, 31380, Note_on_c, 0, 64, 100
1, 31440, Note_off_c, 0, 64, 0
1, 31440, Note_on_c, 0, 62, 100
1, 31560, Note_off_c, 0, 62, 0
1, 31560, Note_on_c, 0, 61, 100
1, 31680, Note_off_c, 0, 61, 0
1, 31680, Note_on_c, 0, 59, 100
1, 31800, Note_off_c, 0, 59, 0
1, 31800, Note_on_c, 0, 66, 100
1, 31920, Note_off_c, 0, 66, 0
1, 31920, Note_on_c, 0, 66, 100
1, 32040, Note_off_c, 0, 66, 0
1, 32160, Note_on_c, 0, 61, 100
1, 32280, Note_off_c, 0, 61, 0
1, 32280, Note_on_c, 0, 61, 100
1, 32340, Note_off_c, 0, 61, 0
1, 32340, Note_on_c, 0, 64, 100
1, 32400, Note_off_c, 0, 64, 0
1, 32400, Note_on_c, 0, 62, 100
1, 32520, Note_off_c, 0, 62, 0
1, 32520, Note_on_c, 0, 61, 100
1, 32640, Note_off_c, 0, 61, 0
1, 32640, Note_on_c, 0, 59, 100
1, 33180, Note_off_c, 0, 59, 0
1, 33800, End_track
0, 0, End_of_file
